HIERARCHY
ROOT root
{
	OFFSET 0.000000 0.000000 0.000000
	CHANNELS 6 Xposition Yposition Zposition Zrotation Yrotation Xrotation
	JOINT lhip
	{
		OFFSET 0.058581 -0.082280 -0.017664
		CHANNELS 3 Zrotation Yrotation Xrotation
		JOINT lknee
		{
			OFFSET 0.043451 -0.386469 0.008037
			CHANNELS 3 Zrotation Yrotation Xrotation
			JOINT lankle
			{
				OFFSET -0.014790 -0.426874 -0.037428
				CHANNELS 3 Zrotation Yrotation Xrotation
				JOINT ltoe
				{
					OFFSET 0.041054 -0.060286 0.122042
					CHANNELS 3 Zrotation Yrotation Xrotation
					End Site
					{
						OFFSET 0.000000 0.000000 0.000000
					}
				}
			}
		}
	}
	JOINT rhip
	{
		OFFSET -0.060310 -0.090513 -0.013543
		CHANNELS 3 Zrotation Yrotation Xrotation
		JOINT rknee
		{
			OFFSET -0.043257 -0.383688 -0.004843
			CHANNELS 3 Zrotation Yrotation Xrotation
			JOINT rankle
			{
				OFFSET 0.019056 -0.420046 -0.034562
				CHANNELS 3 Zrotation Yrotation Xrotation
				JOINT rtoe
				{
					OFFSET -0.034840 -0.062106 0.130323
					CHANNELS 3 Zrotation Yrotation Xrotation
					End Site
					{
						OFFSET 0.000000 0.000000 0.000000
					}
				}
			}
		}
	}
	JOINT lowerback
	{
		OFFSET 0.004439 0.124404 -0.038385
		CHANNELS 3 Zrotation Yrotation Xrotation
		JOINT upperback
		{
			OFFSET 0.004488 0.137956 0.026820
			CHANNELS 3 Zrotation Yrotation Xrotation
			JOINT chest
			{
				OFFSET -0.002265 0.056032 0.002855
				CHANNELS 3 Zrotation Yrotation Xrotation
				JOINT lowerneck
				{
					OFFSET -0.013390 0.211636 -0.033468
					CHANNELS 3 Zrotation Yrotation Xrotation
					JOINT upperneck
					{
						OFFSET 0.010113 0.088937 0.050410
						CHANNELS 3 Zrotation Yrotation Xrotation
						End Site
						{
							OFFSET 0.000000 0.000000 0.000000
						}
					}
				}
				JOINT lclavicle
				{
					OFFSET 0.071702 0.114000 -0.018898
					CHANNELS 3 Zrotation Yrotation Xrotation
					JOINT lshoulder
					{
						OFFSET 0.122921 0.045205 -0.019046
						CHANNELS 3 Zrotation Yrotation Xrotation
						JOINT lelbow
						{
							OFFSET 0.255332 -0.015649 -0.022946
							CHANNELS 3 Zrotation Yrotation Xrotation
							JOINT lwrist
							{
								OFFSET 0.265709 0.012698 -0.007375
								CHANNELS 3 Zrotation Yrotation Xrotation
								End Site
								{
									OFFSET 0.000000 0.000000 0.000000
								}
							}
						}
					}
				}
				JOINT rclavicle
				{
					OFFSET -0.082954 0.112472 -0.023707
					CHANNELS 3 Zrotation Yrotation Xrotation
					JOINT rshoulder
					{
						OFFSET -0.113228 0.046853 -0.008472
						CHANNELS 3 Zrotation Yrotation Xrotation
						JOINT relbow
						{
							OFFSET -0.260127 -0.014369 -0.031269
							CHANNELS 3 Zrotation Yrotation Xrotation
							JOINT rwrist
							{
								OFFSET -0.269108 0.006794 -0.006027
								CHANNELS 3 Zrotation Yrotation Xrotation
								End Site
								{
									OFFSET 0.000000 0.000000 0.000000
								}
							}
						}
					}
				}
			}
		}
	}
}
MOTION
Frames: 9
Frame Time: 0.033333
0.352259 0.174201 0.993855 86.700177 0.151050 92.217315 7.005948 5.536232 4.316624 -3.932531 -0.808215 -6.596115 -0.464219 8.910716 -2.920563 0.000000 -0.000000 0.000000 -7.319605 -3.267346 -1.013699 2.139938 -1.181158 -0.541534 5.408184 -3.938187 -4.643765 0.000000 -0.000000 0.000000 -5.122989 2.799514 -8.153102 2.012872 -0.978527 9.668500 -0.622035 1.065113 -3.161187 3.691407 2.273848 6.527292 5.738023 -3.461655 -1.815471 -26.647348 2.191336 -2.799083 -54.495384 -4.456408 18.204668 4.670513 -19.565628 7.363207 -3.893938 -15.515169 11.584990 29.592242 0.292728 3.048515 53.527317 1.181852 13.888706 -8.838319 25.409578 -1.904173 0.622835 12.440781 3.605080 
0.352226 0.173732 0.993734 86.698802 0.179630 92.230893 7.033711 5.444974 4.251779 -3.886482 -0.740925 -6.507358 -0.520304 8.935892 -2.940286 0.000000 -0.000000 0.000000 -7.292213 -3.194676 -0.993556 2.203243 -1.117873 -0.604327 5.344759 -4.037906 -4.614810 0.000000 -0.000000 0.000000 -5.038297 2.867441 -7.923547 1.858219 -0.793252 9.263140 -0.587188 1.159560 -2.961884 3.550190 2.036238 5.919922 5.591063 -3.778899 -1.722348 -26.614563 2.292550 -2.773339 -54.902000 -4.470896 17.719227 5.123103 -18.895271 7.302269 -4.518950 -15.731579 12.106143 29.359605 0.222151 3.174986 54.024842 1.196651 13.777844 -9.006434 25.079688 -1.752339 0.823699 12.352881 3.767278 
0.352249 0.173544 0.993729 86.758413 0.290973 92.063647 7.171368 5.390922 4.384379 -3.864465 -0.759005 -6.439190 -0.580525 8.963983 -2.978695 0.000000 -0.000000 0.000000 -7.145858 -3.183189 -0.780183 2.154581 -1.108194 -0.640295 5.381581 -4.070697 -4.635287 0.000000 -0.000000 0.000000 -5.140225 2.583142 -8.113446 2.023133 -0.831765 9.718768 -0.403093 1.606988 -2.765768 3.155365 1.663180 5.586666 5.543895 -4.052182 -1.896787 -26.792392 2.011689 -2.611049 -55.000119 -4.374908 17.585222 5.021683 -18.893429 7.016147 -4.416288 -15.430442 11.971972 28.938646 1.036839 3.655640 54.385451 1.193213 13.655967 -9.234090 24.803434 -2.084878 0.537362 12.212855 3.458916 
0.352760 0.173519 0.993524 86.902966 0.339758 92.107462 7.274278 5.316383 4.302009 -3.858564 -0.788323 -6.410277 -0.680342 8.961438 -2.914704 0.000000 -0.000000 0.000000 -7.091397 -3.178081 -0.701025 2.196962 -1.175972 -0.700036 5.399399 -4.201913 -4.612337 0.000000 -0.000000 0.000000 -5.284629 2.461029 -8.481085 2.227579 -0.857580 9.975750 -0.208252 1.766449 -2.529843 2.683754 1.502949 5.369178 5.523495 -4.542090 -2.155987 -26.596124 2.062290 -2.615916 -55.715796 -4.794048 17.422495 4.954986 -17.473522 7.487533 -5.035242 -15.825703 12.196402 28.855269 1.067175 3.681522 54.237647 1.433041 13.463277 -9.101607 24.559671 -1.574671 0.778520 12.247085 3.575276 
0.353042 0.173367 0.993510 86.943864 0.342015 92.096223 7.316271 5.334632 4.332356 -3.884987 -0.824219 -6.418568 -0.725201 8.955796 -2.930092 0.000000 -0.000000 0.000000 -7.070272 -3.172842 -0.653837 2.183115 -1.200282 -0.683391 5.386569 -4.201930 -4.655103 0.000000 -0.000000 0.000000 -5.296944 2.479914 -8.556095 2.224664 -0.823801 10.157015 -0.235082 1.814304 -2.668021 2.682081 1.365977 5.333259 5.567371 -4.745717 -2.189257 -26.679671 1.974094 -2.521322 -55.539879 -4.577456 17.507646 4.966444 -17.720065 7.378372 -4.966469 -15.786840 12.304488 28.854649 1.346651 3.854373 54.297343 1.220469 13.516788 -9.155327 24.595997 -1.872036 0.619844 12.329294 3.449285 
0.353757 0.172918 0.993442 87.114798 0.213910 92.239630 7.236589 5.340557 4.195459 -3.916513 -0.885607 -6.414776 -0.745267 8.854563 -2.942219 0.000000 -0.000000 0.000000 -7.152639 -3.198580 -0.694370 2.168579 -1.268956 -0.710989 5.323089 -4.280205 -4.699900 0.000000 -0.000000 0.000000 -5.238880 2.911185 -8.430273 2.013756 -0.689918 9.773973 -0.430995 1.383718 -2.954371 2.907361 1.298398 5.346592 5.595930 -5.112565 -2.008331 -26.308475 2.116968 -2.361465 -55.389894 -4.430812 17.745902 4.539055 -17.643191 7.816313 -4.765559 -15.828404 12.269297 29.147485 0.848855 3.586734 54.316229 0.968165 13.723179 -8.981441 24.660863 -1.616174 0.516801 12.435287 3.542033 
0.354551 0.172754 0.993448 87.239476 0.113154 92.258948 7.183515 5.353857 4.243154 -3.956028 -0.963900 -6.465515 -0.708127 8.797110 -2.934890 0.000000 -0.000000 0.000000 -7.249979 -3.157390 -0.553411 2.189070 -1.347705 -0.803537 5.323994 -4.353463 -4.685717 0.000000 -0.000000 0.000000 -5.262617 3.085550 -8.552970 1.918145 -0.641378 9.843739 -0.485910 1.208575 -3.132806 2.985864 1.415913 5.469545 5.650329 -5.299529 -2.130679 -26.064118 2.131980 -2.213077 -55.529426 -4.463118 17.663945 4.524257 -17.399273 7.941944 -4.854677 -16.012606 12.378364 29.261976 0.852474 3.643008 54.374467 0.885656 13.778876 -9.012531 24.721277 -1.636254 0.370588 12.663810 3.434143 
0.354814 0.172783 0.993350 87.482478 0.085393 92.264445 7.178756 5.295072 4.150529 -3.947938 -1.036649 -6.344649 -0.689043 8.730104 -2.980833 0.000000 -0.000000 0.000000 -7.250155 -3.189537 -0.458729 2.165301 -1.449317 -0.821110 5.265405 -4.448345 -4.708428 0.000000 -0.000000 0.000000 -5.284492 3.083616 -8.706189 1.935288 -0.738146 10.072742 -0.498957 1.159908 -3.305178 2.950069 1.458315 5.459243 5.621790 -5.377673 -2.051479 -26.046265 1.996543 -2.122008 -55.487890 -4.415676 17.713494 4.534253 -17.487733 7.774840 -4.744778 -15.975977 12.383535 29.282948 1.108361 3.756109 54.427502 0.798370 13.832454 -9.196829 24.929344 -2.048643 0.084914 12.746526 3.253922 
0.354962 0.172945 0.993137 87.750444 0.075279 92.268988 7.176102 5.179726 4.004618 -3.928411 -1.067510 -6.181799 -0.680953 8.647042 -2.994997 0.000000 -0.000000 0.000000 -7.255403 -3.217962 -0.381065 2.178701 -1.576955 -0.845961 5.225003 -4.538268 -4.760233 0.000000 -0.000000 0.000000 -5.251345 3.058185 -8.719473 1.963126 -0.830164 10.005631 -0.540675 1.151451 -3.329815 2.882741 1.471799 5.320794 5.637297 -5.540863 -1.813467 -26.020618 1.919600 -2.152422 -55.329366 -4.592375 17.812931 4.190777 -17.445039 7.940379 -4.665966 -15.955033 12.295401 29.396987 0.929699 3.626390 54.311498 0.939347 13.761977 -9.183452 25.141982 -2.017610 0.057645 12.746886 3.360613 
